<?xml version="1.0" encoding="UTF-8"?>
<!-- Generated by SVGo -->
<svg width="106.401mm" height="106.400mm" viewBox="0.000 0.000 106.401 106.400" xmlns="http://www.w3.org/2000/svg" xmlns:xlink="http://www.w3.org/1999/xlink">
<polygon points="101.401,101.400 5.000,101.400 5.000,5.000 101.401,5.000" style="fill:none;stroke-width:0.050000mm;stroke:black"/>
<polygon points="6.406,98.797 6.141,98.932 5.931,99.142 5.796,99.407 5.750,99.701 5.796,99.994 5.931,100.259 6.141,100.469 6.406,100.604 6.700,100.651 6.993,100.604 7.258,100.469 7.468,100.259 7.603,99.994 7.650,99.701 7.603,99.407 7.468,99.142 7.258,98.932 6.993,98.797 6.700,98.750" style="fill:none;stroke-width:0.050000mm;stroke:black"/>
<polygon points="99.407,98.797 99.142,98.932 98.932,99.142 98.797,99.407 98.750,99.701 98.797,99.994 98.932,100.259 99.142,100.469 99.407,100.604 99.701,100.651 99.994,100.604 100.259,100.469 100.469,100.259 100.604,99.994 100.651,99.701 100.604,99.407 100.469,99.142 100.259,98.932 99.994,98.797 99.701,98.750" style="fill:none;stroke-width:0.050000mm;stroke:black"/>
<polygon points="34.149,15.099 34.149,53.199 15.099,53.199 15.099,91.300 91.300,91.300 91.300,34.150 91.301,34.150 91.301,15.099" style="fill:none;stroke-width:0.050000mm;stroke:black"/>
<polygon points="6.406,5.796 6.141,5.931 5.931,6.141 5.796,6.406 5.750,6.700 5.796,6.993 5.931,7.258 6.141,7.468 6.406,7.603 6.700,7.650 6.993,7.603 7.258,7.468 7.468,7.258 7.603,6.993 7.650,6.700 7.603,6.406 7.468,6.141 7.258,5.931 6.993,5.796 6.700,5.750" style="fill:none;stroke-width:0.050000mm;stroke:black"/>
<polygon points="99.407,5.796 99.142,5.931 98.932,6.141 98.797,6.406 98.750,6.699 98.797,6.993 98.932,7.258 99.142,7.468 99.407,7.603 99.701,7.649 99.994,7.603 100.259,7.468 100.469,7.258 100.604,6.993 100.651,6.699 100.604,6.406 100.469,6.141 100.259,5.931 99.994,5.796 99.701,5.749" style="fill:none;stroke-width:0.050000mm;stroke:black"/>
</svg>