  0
SECTION
  2
HEADER
  9
$ACADVER
  1
AC1009
  9
$EXTMIN
 10
0.0
 20
0.0
 30
0.0
  9
$EXTMAX
 10
1000.0
 20
1000.0
 30
0.0
  9
$FILLMODE
 70
 0
  9
$SPLFRAME
 70
 1
  0
ENDSEC
  0
SECTION
  2
TABLES
  0
TABLE
  2
LAYER
 70
1
  0
LAYER
  2
0
 70
     0
 62
     7
  6
CONTINUOUS
  0
ENDTAB
  0
ENDSEC
  0
SECTION
  2
ENTITIES
  0
LINE
  8
0
 62
     0
 10
10.6936
 20
92.5671
 30
0.0
 11
4.09416
 21
92.5671
 31
0.0
  0
LINE
  8
0
 62
     0
 10
4.09416
 20
92.5671
 30
0.0
 11
4.09416
 21
4.36563
 31
0.0
  0
LINE
  8
0
 62
     0
 10
4.09416
 20
4.36563
 30
0.0
 11
92.2955
 21
4.36563
 31
0.0
  0
LINE
  8
0
 62
     0
 10
92.2955
 20
4.36563
 30
0.0
 11
92.2955
 21
92.5671
 31
0.0
  0
LINE
  8
0
 62
     0
 10
92.2955
 20
92.5671
 30
0.0
 11
25.6935
 21
92.5671
 31
0.0
  0
LINE
  8
0
 62
     0
 10
25.6935
 20
92.5671
 30
0.0
 11
25.6935
 21
96.5659
 31
0.0
  0
LINE
  8
0
 62
     0
 10
25.6935
 20
96.5659
 30
0.0
 11
96.296
 21
96.5659
 31
0.0
  0
LINE
  8
0
 62
     0
 10
96.296
 20
96.5659
 30
0.0
 11
96.296
 21
0.365181
 31
0.0
  0
LINE
  8
0
 62
     0
 10
96.296
 20
0.365181
 30
0.0
 11
0.0950846
 21
0.365181
 31
0.0
  0
LINE
  8
0
 62
     0
 10
0.0950846
 20
0.365181
 30
0.0
 11
0.0950846
 21
96.5659
 31
0.0
  0
LINE
  8
0
 62
     0
 10
0.0950846
 20
96.5659
 30
0.0
 11
10.6936
 21
96.5659
 31
0.0
  0
LINE
  8
0
 62
     0
 10
10.6936
 20
96.5659
 30
0.0
 11
10.6936
 21
92.5671
 31
0.0
  0
LINE
  8
0
 62
     0
 10
1.63022
 20
3.79236
 30
0.0
 11
1.21267
 21
3.58013
 31
0.0
  0
LINE
  8
0
 62
     0
 10
1.21267
 20
3.58013
 30
0.0
 11
0.880565
 21
3.24804
 31
0.0
  0
LINE
  8
0
 62
     0
 10
0.880565
 20
3.24804
 30
0.0
 11
0.666972
 21
2.82911
 31
0.0
  0
LINE
  8
0
 62
     0
 10
0.666972
 20
2.82911
 30
0.0
 11
0.593933
 21
2.36609
 31
0.0
  0
LINE
  8
0
 62
     0
 10
0.593933
 20
2.36609
 30
0.0
 11
0.666972
 21
1.90307
 31
0.0
  0
LINE
  8
0
 62
     0
 10
0.666972
 20
1.90307
 30
0.0
 11
0.880565
 21
1.48415
 31
0.0
  0
LINE
  8
0
 62
     0
 10
0.880565
 20
1.48415
 30
0.0
 11
1.21267
 21
1.15204
 31
0.0
  0
LINE
  8
0
 62
     0
 10
1.21267
 20
1.15204
 30
0.0
 11
1.63022
 21
0.939821
 31
0.0
  0
LINE
  8
0
 62
     0
 10
1.63022
 20
0.939821
 30
0.0
 11
2.09462
 21
0.86541
 31
0.0
  0
LINE
  8
0
 62
     0
 10
2.09462
 20
0.86541
 30
0.0
 11
2.55764
 21
0.939821
 31
0.0
  0
LINE
  8
0
 62
     0
 10
2.55764
 20
0.939821
 30
0.0
 11
2.97518
 21
1.15204
 31
0.0
  0
LINE
  8
0
 62
     0
 10
2.97518
 20
1.15204
 30
0.0
 11
3.30729
 21
1.48415
 31
0.0
  0
LINE
  8
0
 62
     0
 10
3.30729
 20
1.48415
 30
0.0
 11
3.52089
 21
1.90307
 31
0.0
  0
LINE
  8
0
 62
     0
 10
3.52089
 20
1.90307
 30
0.0
 11
3.59392
 21
2.36609
 31
0.0
  0
LINE
  8
0
 62
     0
 10
3.59392
 20
2.36609
 30
0.0
 11
3.52089
 21
2.82911
 31
0.0
  0
LINE
  8
0
 62
     0
 10
3.52089
 20
2.82911
 30
0.0
 11
3.30729
 21
3.24804
 31
0.0
  0
LINE
  8
0
 62
     0
 10
3.30729
 20
3.24804
 30
0.0
 11
2.97518
 21
3.58013
 31
0.0
  0
LINE
  8
0
 62
     0
 10
2.97518
 20
3.58013
 30
0.0
 11
2.55764
 21
3.79236
 31
0.0
  0
LINE
  8
0
 62
     0
 10
2.55764
 20
3.79236
 30
0.0
 11
2.09462
 21
3.86539
 31
0.0
  0
LINE
  8
0
 62
     0
 10
2.09462
 20
3.86539
 30
0.0
 11
1.63022
 21
3.79236
 31
0.0
  0
LINE
  8
0
 62
     0
 10
93.8318
 20
3.79236
 30
0.0
 11
93.4131
 21
3.58013
 31
0.0
  0
LINE
  8
0
 62
     0
 10
93.4131
 20
3.58013
 30
0.0
 11
93.0811
 21
3.24804
 31
0.0
  0
LINE
  8
0
 62
     0
 10
93.0811
 20
3.24804
 30
0.0
 11
92.8688
 21
2.82911
 31
0.0
  0
LINE
  8
0
 62
     0
 10
92.8688
 20
2.82911
 30
0.0
 11
92.7957
 21
2.36609
 31
0.0
  0
LINE
  8
0
 62
     0
 10
92.7957
 20
2.36609
 30
0.0
 11
92.8688
 21
1.90307
 31
0.0
  0
LINE
  8
0
 62
     0
 10
92.8688
 20
1.90307
 30
0.0
 11
93.0811
 21
1.48415
 31
0.0
  0
LINE
  8
0
 62
     0
 10
93.0811
 20
1.48415
 30
0.0
 11
93.4131
 21
1.15204
 31
0.0
  0
LINE
  8
0
 62
     0
 10
93.4131
 20
1.15204
 30
0.0
 11
93.8318
 21
0.939821
 31
0.0
  0
LINE
  8
0
 62
     0
 10
93.8318
 20
0.939821
 30
0.0
 11
94.295
 21
0.86541
 31
0.0
  0
LINE
  8
0
 62
     0
 10
94.295
 20
0.86541
 30
0.0
 11
94.7579
 21
0.939821
 31
0.0
  0
LINE
  8
0
 62
     0
 10
94.7579
 20
0.939821
 30
0.0
 11
95.177
 21
1.15204
 31
0.0
  0
LINE
  8
0
 62
     0
 10
95.177
 20
1.15204
 30
0.0
 11
95.5089
 21
1.48415
 31
0.0
  0
LINE
  8
0
 62
     0
 10
95.5089
 20
1.48415
 30
0.0
 11
95.7213
 21
1.90307
 31
0.0
  0
LINE
  8
0
 62
     0
 10
95.7213
 20
1.90307
 30
0.0
 11
95.7957
 21
2.36609
 31
0.0
  0
LINE
  8
0
 62
     0
 10
95.7957
 20
2.36609
 30
0.0
 11
95.7213
 21
2.82911
 31
0.0
  0
LINE
  8
0
 62
     0
 10
95.7213
 20
2.82911
 30
0.0
 11
95.5089
 21
3.24804
 31
0.0
  0
LINE
  8
0
 62
     0
 10
95.5089
 20
3.24804
 30
0.0
 11
95.177
 21
3.58013
 31
0.0
  0
LINE
  8
0
 62
     0
 10
95.177
 20
3.58013
 30
0.0
 11
94.7579
 21
3.79236
 31
0.0
  0
LINE
  8
0
 62
     0
 10
94.7579
 20
3.79236
 30
0.0
 11
94.295
 21
3.86539
 31
0.0
  0
LINE
  8
0
 62
     0
 10
94.295
 20
3.86539
 30
0.0
 11
93.8318
 21
3.79236
 31
0.0
  0
LINE
  8
0
 62
     0
 10
1.63022
 20
95.994
 30
0.0
 11
1.21267
 21
95.7806
 31
0.0
  0
LINE
  8
0
 62
     0
 10
1.21267
 20
95.7806
 30
0.0
 11
0.880565
 21
95.4486
 31
0.0
  0
LINE
  8
0
 62
     0
 10
0.880565
 20
95.4486
 30
0.0
 11
0.666972
 21
95.0309
 31
0.0
  0
LINE
  8
0
 62
     0
 10
0.666972
 20
95.0309
 30
0.0
 11
0.593933
 21
94.5667
 31
0.0
  0
LINE
  8
0
 62
     0
 10
0.593933
 20
94.5667
 30
0.0
 11
0.666972
 21
94.1035
 31
0.0
  0
LINE
  8
0
 62
     0
 10
0.666972
 20
94.1035
 30
0.0
 11
0.880565
 21
93.6858
 31
0.0
  0
LINE
  8
0
 62
     0
 10
0.880565
 20
93.6858
 30
0.0
 11
1.21267
 21
93.3538
 31
0.0
  0
LINE
  8
0
 62
     0
 10
1.21267
 20
93.3538
 30
0.0
 11
1.63022
 21
93.1404
 31
0.0
  0
LINE
  8
0
 62
     0
 10
1.63022
 20
93.1404
 30
0.0
 11
2.09462
 21
93.0674
 31
0.0
  0
LINE
  8
0
 62
     0
 10
2.09462
 20
93.0674
 30
0.0
 11
2.55764
 21
93.1404
 31
0.0
  0
LINE
  8
0
 62
     0
 10
2.55764
 20
93.1404
 30
0.0
 11
2.97518
 21
93.3538
 31
0.0
  0
LINE
  8
0
 62
     0
 10
2.97518
 20
93.3538
 30
0.0
 11
3.30729
 21
93.6858
 31
0.0
  0
LINE
  8
0
 62
     0
 10
3.30729
 20
93.6858
 30
0.0
 11
3.52089
 21
94.1035
 31
0.0
  0
LINE
  8
0
 62
     0
 10
3.52089
 20
94.1035
 30
0.0
 11
3.59392
 21
94.5667
 31
0.0
  0
LINE
  8
0
 62
     0
 10
3.59392
 20
94.5667
 30
0.0
 11
3.52089
 21
95.0309
 31
0.0
  0
LINE
  8
0
 62
     0
 10
3.52089
 20
95.0309
 30
0.0
 11
3.30729
 21
95.4486
 31
0.0
  0
LINE
  8
0
 62
     0
 10
3.30729
 20
95.4486
 30
0.0
 11
2.97518
 21
95.7806
 31
0.0
  0
LINE
  8
0
 62
     0
 10
2.97518
 20
95.7806
 30
0.0
 11
2.55764
 21
95.994
 31
0.0
  0
LINE
  8
0
 62
     0
 10
2.55764
 20
95.994
 30
0.0
 11
2.09462
 21
96.067
 31
0.0
  0
LINE
  8
0
 62
     0
 10
2.09462
 20
96.067
 30
0.0
 11
1.63022
 21
95.994
 31
0.0
  0
LINE
  8
0
 62
     0
 10
93.8318
 20
95.994
 30
0.0
 11
93.4131
 21
95.7806
 31
0.0
  0
LINE
  8
0
 62
     0
 10
93.4131
 20
95.7806
 30
0.0
 11
93.0811
 21
95.4486
 31
0.0
  0
LINE
  8
0
 62
     0
 10
93.0811
 20
95.4486
 30
0.0
 11
92.8688
 21
95.0309
 31
0.0
  0
LINE
  8
0
 62
     0
 10
92.8688
 20
95.0309
 30
0.0
 11
92.7957
 21
94.5667
 31
0.0
  0
LINE
  8
0
 62
     0
 10
92.7957
 20
94.5667
 30
0.0
 11
92.8688
 21
94.1035
 31
0.0
  0
LINE
  8
0
 62
     0
 10
92.8688
 20
94.1035
 30
0.0
 11
93.0811
 21
93.6858
 31
0.0
  0
LINE
  8
0
 62
     0
 10
93.0811
 20
93.6858
 30
0.0
 11
93.4131
 21
93.3538
 31
0.0
  0
LINE
  8
0
 62
     0
 10
93.4131
 20
93.3538
 30
0.0
 11
93.8318
 21
93.1404
 31
0.0
  0
LINE
  8
0
 62
     0
 10
93.8318
 20
93.1404
 30
0.0
 11
94.295
 21
93.0674
 31
0.0
  0
LINE
  8
0
 62
     0
 10
94.295
 20
93.0674
 30
0.0
 11
94.7579
 21
93.1404
 31
0.0
  0
LINE
  8
0
 62
     0
 10
94.7579
 20
93.1404
 30
0.0
 11
95.177
 21
93.3538
 31
0.0
  0
LINE
  8
0
 62
     0
 10
95.177
 20
93.3538
 30
0.0
 11
95.5089
 21
93.6858
 31
0.0
  0
LINE
  8
0
 62
     0
 10
95.5089
 20
93.6858
 30
0.0
 11
95.7213
 21
94.1035
 31
0.0
  0
LINE
  8
0
 62
     0
 10
95.7213
 20
94.1035
 30
0.0
 11
95.7957
 21
94.5667
 31
0.0
  0
LINE
  8
0
 62
     0
 10
95.7957
 20
94.5667
 30
0.0
 11
95.7213
 21
95.0309
 31
0.0
  0
LINE
  8
0
 62
     0
 10
95.7213
 20
95.0309
 30
0.0
 11
95.5089
 21
95.4486
 31
0.0
  0
LINE
  8
0
 62
     0
 10
95.5089
 20
95.4486
 30
0.0
 11
95.177
 21
95.7806
 31
0.0
  0
LINE
  8
0
 62
     0
 10
95.177
 20
95.7806
 30
0.0
 11
94.7579
 21
95.994
 31
0.0
  0
LINE
  8
0
 62
     0
 10
94.7579
 20
95.994
 30
0.0
 11
94.295
 21
96.067
 31
0.0
  0
LINE
  8
0
 62
     0
 10
94.295
 20
96.067
 30
0.0
 11
93.8318
 21
95.994
 31
0.0
  0
ENDSEC
  0
EOF
