<?xml version="1.0" encoding="UTF-8"?>
<!-- Generated by SVGo -->
<svg width="106.201mm" height="106.201mm" viewBox="0.000 0.000 106.201 106.201" xmlns="http://www.w3.org/2000/svg" xmlns:xlink="http://www.w3.org/1999/xlink">
<polygon points="101.201,101.201 5.000,101.201 5.000,5.000 101.201,5.000" style="fill:none;stroke-width:0.050000mm;stroke:black"/>
<polygon points="6.536,97.774 6.118,97.987 5.786,98.319 5.573,98.737 5.499,99.201 5.573,99.664 5.786,100.082 6.118,100.414 6.536,100.627 7.000,100.701 7.463,100.627 7.881,100.414 8.213,100.082 8.426,99.664 8.500,99.201 8.426,98.737 8.213,98.319 7.881,97.987 7.463,97.774 7.000,97.701" style="fill:none;stroke-width:0.050000mm;stroke:black"/>
<polygon points="98.737,97.774 98.319,97.987 97.987,98.319 97.774,98.737 97.701,99.201 97.774,99.664 97.987,100.082 98.319,100.414 98.737,100.627 99.201,100.701 99.664,100.627 100.082,100.414 100.414,100.082 100.627,99.664 100.701,99.201 100.627,98.737 100.414,98.319 100.082,97.987 99.664,97.774 99.201,97.701" style="fill:none;stroke-width:0.050000mm;stroke:black"/>
<polygon points="74.675,74.675 74.675,75.675 73.875,75.675 73.875,78.774 74.675,78.774 74.675,84.575 73.875,84.575 73.875,87.675 74.675,87.675 74.675,88.675 88.675,88.675 88.675,87.675 89.475,87.675 89.475,84.575 88.675,84.575 88.675,78.774 89.475,78.774 89.475,75.675 88.675,75.675 88.675,74.675" style="fill:none;stroke-width:0.050000mm;stroke:black"/>
<polygon points="55.625,74.675 55.625,75.675 54.825,75.675 54.825,78.774 55.625,78.774 55.625,84.575 54.825,84.575 54.825,87.675 55.625,87.675 55.625,88.675 69.625,88.675 69.625,87.675 70.425,87.675 70.425,84.575 69.625,84.575 69.625,78.774 70.425,78.774 70.425,75.675 69.625,75.675 69.625,74.675" style="fill:none;stroke-width:0.050000mm;stroke:black"/>
<polygon points="36.575,74.675 36.575,75.675 35.775,75.675 35.775,78.774 36.575,78.774 36.575,84.575 35.775,84.575 35.775,87.675 36.575,87.675 36.575,88.675 50.575,88.675 50.575,87.675 51.375,87.675 51.375,84.575 50.575,84.575 50.575,78.774 51.375,78.774 51.375,75.675 50.575,75.675 50.575,74.675" style="fill:none;stroke-width:0.050000mm;stroke:black"/>
<polygon points="17.525,74.675 17.525,75.675 16.724,75.675 16.724,78.774 17.525,78.774 17.525,84.575 16.724,84.575 16.724,87.675 17.525,87.675 17.525,88.675 31.525,88.675 31.525,87.675 32.323,87.675 32.323,84.575 31.525,84.575 31.525,78.774 32.323,78.774 32.323,75.675 31.525,75.675 31.525,74.675" style="fill:none;stroke-width:0.050000mm;stroke:black"/>
<polygon points="74.675,55.625 74.675,56.625 73.875,56.625 73.875,59.725 74.675,59.725 74.675,65.525 73.875,65.525 73.875,68.625 74.675,68.625 74.675,69.625 88.675,69.625 88.675,68.625 89.475,68.625 89.475,65.525 88.675,65.525 88.675,59.725 89.475,59.725 89.475,56.625 88.675,56.625 88.675,55.625" style="fill:none;stroke-width:0.050000mm;stroke:black"/>
<polygon points="55.625,55.625 55.625,56.625 54.825,56.625 54.825,59.725 55.625,59.725 55.625,65.525 54.825,65.525 54.825,68.625 55.625,68.625 55.625,69.625 69.625,69.625 69.625,68.625 70.425,68.625 70.425,65.525 69.625,65.525 69.625,59.725 70.425,59.725 70.425,56.625 69.625,56.625 69.625,55.625" style="fill:none;stroke-width:0.050000mm;stroke:black"/>
<polygon points="36.575,55.625 36.575,56.625 35.775,56.625 35.775,59.725 36.575,59.725 36.575,65.525 35.775,65.525 35.775,68.625 36.575,68.625 36.575,69.625 50.575,69.625 50.575,68.625 51.375,68.625 51.375,65.525 50.575,65.525 50.575,59.725 51.375,59.725 51.375,56.625 50.575,56.625 50.575,55.625" style="fill:none;stroke-width:0.050000mm;stroke:black"/>
<polygon points="17.525,55.625 17.525,56.625 16.724,56.625 16.724,59.725 17.525,59.725 17.525,65.525 16.724,65.525 16.724,68.625 17.525,68.625 17.525,69.625 31.525,69.625 31.525,68.625 32.323,68.625 32.323,65.525 31.525,65.525 31.525,59.725 32.323,59.725 32.323,56.625 31.525,56.625 31.525,55.625" style="fill:none;stroke-width:0.050000mm;stroke:black"/>
<polygon points="74.675,36.575 74.675,37.575 73.875,37.575 73.875,40.675 74.675,40.675 74.675,46.475 73.875,46.475 73.875,49.575 74.675,49.575 74.675,50.575 88.675,50.575 88.675,49.575 89.475,49.575 89.475,46.475 88.675,46.475 88.675,40.675 89.475,40.675 89.475,37.575 88.675,37.575 88.675,36.575" style="fill:none;stroke-width:0.050000mm;stroke:black"/>
<polygon points="55.625,36.575 55.625,37.575 54.825,37.575 54.825,40.675 55.625,40.675 55.625,46.475 54.825,46.475 54.825,49.575 55.625,49.575 55.625,50.575 69.625,50.575 69.625,49.575 70.425,49.575 70.425,46.475 69.625,46.475 69.625,40.675 70.425,40.675 70.425,37.575 69.625,37.575 69.625,36.575" style="fill:none;stroke-width:0.050000mm;stroke:black"/>
<polygon points="36.574,36.575 36.574,37.575 35.775,37.575 35.775,40.675 36.574,40.675 36.574,46.475 35.775,46.475 35.775,49.575 36.574,49.575 36.574,50.575 50.574,50.575 50.574,49.575 51.374,49.575 51.374,46.475 50.574,46.475 50.574,40.675 51.374,40.675 51.374,37.575 50.574,37.575 50.574,36.575" style="fill:none;stroke-width:0.050000mm;stroke:black"/>
<polygon points="74.675,17.525 74.675,18.525 73.875,18.525 73.875,21.625 74.675,21.625 74.675,27.424 73.875,27.424 73.875,30.525 74.675,30.525 74.675,31.525 88.675,31.525 88.675,30.525 89.475,30.525 89.475,27.424 88.675,27.424 88.675,21.625 89.475,21.625 89.475,18.525 88.675,18.525 88.675,17.525" style="fill:none;stroke-width:0.050000mm;stroke:black"/>
<polygon points="55.625,17.525 55.625,18.525 54.825,18.525 54.825,21.625 55.625,21.625 55.625,27.424 54.825,27.424 54.825,30.525 55.625,30.525 55.625,31.525 69.625,31.525 69.625,30.525 70.425,30.525 70.425,27.424 69.625,27.424 69.625,21.625 70.425,21.625 70.425,18.525 69.625,18.525 69.625,17.525" style="fill:none;stroke-width:0.050000mm;stroke:black"/>
<polygon points="36.575,17.525 36.575,18.525 35.775,18.525 35.775,21.625 36.575,21.625 36.575,27.424 35.775,27.424 35.775,30.525 36.575,30.525 36.575,31.525 50.575,31.525 50.575,30.525 51.375,30.525 51.375,27.424 50.575,27.424 50.575,21.625 51.375,21.625 51.375,18.525 50.575,18.525 50.575,17.525" style="fill:none;stroke-width:0.050000mm;stroke:black"/>
<polygon points="6.536,5.573 6.118,5.786 5.786,6.118 5.573,6.536 5.499,7.000 5.573,7.463 5.786,7.881 6.118,8.213 6.536,8.426 7.000,8.500 7.463,8.426 7.881,8.213 8.213,7.881 8.426,7.463 8.500,7.000 8.426,6.536 8.213,6.118 7.881,5.786 7.463,5.573 7.000,5.500" style="fill:none;stroke-width:0.050000mm;stroke:black"/>
<polygon points="98.737,5.573 98.319,5.786 97.987,6.118 97.774,6.536 97.701,7.000 97.774,7.463 97.987,7.881 98.319,8.213 98.737,8.426 99.201,8.500 99.664,8.426 100.082,8.213 100.414,7.881 100.627,7.463 100.701,7.000 100.627,6.536 100.414,6.118 100.082,5.786 99.664,5.573 99.201,5.500" style="fill:none;stroke-width:0.050000mm;stroke:black"/>
</svg>