<?xml version="1.0" encoding="UTF-8"?>
<!-- Generated by SVGo -->
<svg width="106.201mm" height="106.201mm" viewBox="0.000 0.000 106.201 106.201" xmlns="http://www.w3.org/2000/svg" xmlns:xlink="http://www.w3.org/1999/xlink">
<polygon points="101.201,101.201 5.000,101.201 5.000,5.000 101.201,5.000" style="fill:none;stroke-width:0.050000mm;stroke:black"/>
<polygon points="6.536,97.774 6.118,97.987 5.786,98.319 5.573,98.737 5.499,99.201 5.573,99.664 5.786,100.082 6.118,100.414 6.536,100.627 7.000,100.701 7.463,100.627 7.881,100.414 8.213,100.082 8.426,99.664 8.500,99.201 8.426,98.737 8.213,98.319 7.881,97.987 7.463,97.774 7.000,97.701" style="fill:none;stroke-width:0.050000mm;stroke:black"/>
<polygon points="98.737,97.774 98.319,97.987 97.987,98.319 97.774,98.737 97.701,99.201 97.774,99.664 97.987,100.082 98.319,100.414 98.737,100.627 99.201,100.701 99.664,100.627 100.082,100.414 100.414,100.082 100.627,99.664 100.701,99.201 100.627,98.737 100.414,98.319 100.082,97.987 99.664,97.774 99.201,97.701" style="fill:none;stroke-width:0.050000mm;stroke:black"/>
<polygon points="34.049,14.998 34.049,34.049 34.048,34.049 34.048,53.099 14.998,53.099 14.998,91.201 91.201,91.201 91.201,14.998" style="fill:none;stroke-width:0.050000mm;stroke:black"/>
<polygon points="6.536,5.573 6.118,5.786 5.786,6.118 5.573,6.536 5.499,7.000 5.573,7.463 5.786,7.881 6.118,8.213 6.536,8.426 7.000,8.500 7.463,8.426 7.881,8.213 8.213,7.881 8.426,7.463 8.500,7.000 8.426,6.536 8.213,6.118 7.881,5.786 7.463,5.573 7.000,5.500" style="fill:none;stroke-width:0.050000mm;stroke:black"/>
<polygon points="98.737,5.573 98.319,5.786 97.987,6.118 97.774,6.536 97.701,7.000 97.774,7.463 97.987,7.881 98.319,8.213 98.737,8.426 99.201,8.500 99.664,8.426 100.082,8.213 100.414,7.881 100.627,7.463 100.701,7.000 100.627,6.536 100.414,6.118 100.082,5.786 99.664,5.573 99.201,5.500" style="fill:none;stroke-width:0.050000mm;stroke:black"/>
</svg>