<?xml version="1.0" encoding="UTF-8" standalone="no"?>
<!-- Created with Inkscape (http://www.inkscape.org/) -->

<svg
   width="1920"
   height="1080"
   viewBox="0 0 508 285.75"
   version="1.1"
   id="svg5"
   inkscape:version="1.1 (c68e22c387, 2021-05-23)"
   sodipodi:docname="case for kanademacro14.svg"
   xmlns:inkscape="http://www.inkscape.org/namespaces/inkscape"
   xmlns:sodipodi="http://sodipodi.sourceforge.net/DTD/sodipodi-0.dtd"
   xmlns="http://www.w3.org/2000/svg"
   xmlns:svg="http://www.w3.org/2000/svg">
  <sodipodi:namedview
     id="namedview7"
     pagecolor="#ffffff"
     bordercolor="#666666"
     borderopacity="1.0"
     inkscape:pageshadow="2"
     inkscape:pageopacity="0.0"
     inkscape:pagecheckerboard="0"
     inkscape:document-units="px"
     showgrid="false"
     inkscape:zoom="0.788866"
     inkscape:cx="688.96365"
     inkscape:cy="472.1968"
     inkscape:window-width="1920"
     inkscape:window-height="1027"
     inkscape:window-x="-8"
     inkscape:window-y="-8"
     inkscape:window-maximized="1"
     inkscape:current-layer="layer1" />
  <defs
     id="defs2" />
  <g
     inkscape:label="Layer 1"
     inkscape:groupmode="layer"
     id="layer1"
     sodipodi:insensitive="true">
    <g
       id="g967"
       transform="translate(7.1709701,18.57497)">
      <polygon
         points="5,5 101.401,5 101.401,101.4 5,101.4 "
         style="fill:none;stroke:#000000;stroke-width:0.05mm"
         id="polygon904" />
      <polygon
         points="6.993,100.604 7.258,100.469 7.468,100.259 7.603,99.994 7.65,99.701 7.603,99.407 7.468,99.142 7.258,98.932 6.993,98.797 6.7,98.75 6.406,98.797 6.141,98.932 5.931,99.142 5.796,99.407 5.75,99.701 5.796,99.994 5.931,100.259 6.141,100.469 6.406,100.604 6.7,100.651 "
         style="fill:none;stroke:#000000;stroke-width:0.05mm"
         id="polygon906" />
      <polygon
         points="99.994,100.604 100.259,100.469 100.469,100.259 100.604,99.994 100.651,99.701 100.604,99.407 100.469,99.142 100.259,98.932 99.994,98.797 99.701,98.75 99.407,98.797 99.142,98.932 98.932,99.142 98.797,99.407 98.75,99.701 98.797,99.994 98.932,100.259 99.142,100.469 99.407,100.604 99.701,100.651 "
         style="fill:none;stroke:#000000;stroke-width:0.05mm"
         id="polygon908" />
      <polygon
         points="88.675,88.675 88.675,74.874 74.874,74.874 74.874,88.675 "
         style="fill:none;stroke:#000000;stroke-width:0.05mm"
         id="polygon910" />
      <polygon
         points="69.625,88.675 69.625,74.874 55.824,74.874 55.824,88.675 "
         style="fill:none;stroke:#000000;stroke-width:0.05mm"
         id="polygon912" />
      <polygon
         points="50.574,88.675 50.574,74.874 36.775,74.874 36.775,88.675 "
         style="fill:none;stroke:#000000;stroke-width:0.05mm"
         id="polygon914" />
      <polygon
         points="31.525,88.675 31.525,74.874 17.725,74.874 17.725,88.675 "
         style="fill:none;stroke:#000000;stroke-width:0.05mm"
         id="polygon916" />
      <polygon
         points="88.675,69.625 88.675,55.824 74.874,55.824 74.874,69.625 "
         style="fill:none;stroke:#000000;stroke-width:0.05mm"
         id="polygon918" />
      <polygon
         points="69.625,69.625 69.625,55.824 55.824,55.824 55.824,69.625 "
         style="fill:none;stroke:#000000;stroke-width:0.05mm"
         id="polygon920" />
      <polygon
         points="50.574,69.625 50.574,55.824 36.775,55.824 36.775,69.625 "
         style="fill:none;stroke:#000000;stroke-width:0.05mm"
         id="polygon922" />
      <polygon
         points="31.525,69.625 31.525,55.824 17.725,55.824 17.725,69.625 "
         style="fill:none;stroke:#000000;stroke-width:0.05mm"
         id="polygon924" />
      <polygon
         points="88.675,50.574 88.675,36.775 74.874,36.775 74.874,50.574 "
         style="fill:none;stroke:#000000;stroke-width:0.05mm"
         id="polygon926" />
      <polygon
         points="69.625,50.574 69.625,36.775 55.824,36.775 55.824,50.574 "
         style="fill:none;stroke:#000000;stroke-width:0.05mm"
         id="polygon928" />
      <polygon
         points="50.574,50.574 50.574,36.775 36.775,36.775 36.775,50.574 "
         style="fill:none;stroke:#000000;stroke-width:0.05mm"
         id="polygon930" />
      <polygon
         points="88.675,31.525 88.675,17.725 74.875,17.725 74.875,31.525 "
         style="fill:none;stroke:#000000;stroke-width:0.05mm"
         id="polygon932" />
      <polygon
         points="69.625,31.525 69.625,17.725 55.825,17.725 55.825,31.525 "
         style="fill:none;stroke:#000000;stroke-width:0.05mm"
         id="polygon934" />
      <polygon
         points="50.575,31.525 50.575,17.725 36.775,17.725 36.775,31.525 "
         style="fill:none;stroke:#000000;stroke-width:0.05mm"
         id="polygon936" />
      <polygon
         points="6.993,7.603 7.258,7.468 7.468,7.258 7.603,6.993 7.65,6.7 7.603,6.406 7.468,6.141 7.258,5.931 6.993,5.796 6.7,5.75 6.406,5.796 6.141,5.931 5.931,6.141 5.796,6.406 5.75,6.7 5.796,6.993 5.931,7.258 6.141,7.468 6.406,7.603 6.7,7.65 "
         style="fill:none;stroke:#000000;stroke-width:0.05mm"
         id="polygon938" />
      <polygon
         points="99.994,7.603 100.259,7.468 100.469,7.258 100.604,6.993 100.651,6.699 100.604,6.406 100.469,6.141 100.259,5.931 99.994,5.796 99.701,5.749 99.407,5.796 99.142,5.931 98.932,6.141 98.797,6.406 98.75,6.699 98.797,6.993 98.932,7.258 99.142,7.468 99.407,7.603 99.701,7.649 "
         style="fill:none;stroke:#000000;stroke-width:0.05mm"
         id="polygon940" />
    </g>
    <g
       id="g993"
       transform="translate(171.18013,63.853575)">
      <polygon
         points="5,5 101.401,5 101.401,101.4 5,101.4 "
         style="fill:none;stroke:#000000;stroke-width:0.05mm"
         id="polygon969"
         transform="translate(-51.651146,-44.943205)" />
      <polygon
         points="6.993,100.604 7.258,100.469 7.468,100.259 7.603,99.994 7.65,99.701 7.603,99.407 7.468,99.142 7.258,98.932 6.993,98.797 6.7,98.75 6.406,98.797 6.141,98.932 5.931,99.142 5.796,99.407 5.75,99.701 5.796,99.994 5.931,100.259 6.141,100.469 6.406,100.604 6.7,100.651 "
         style="fill:none;stroke:#000000;stroke-width:0.05mm"
         id="polygon971"
         transform="translate(-51.651146,-44.943205)" />
      <polygon
         points="99.994,100.604 100.259,100.469 100.469,100.259 100.604,99.994 100.651,99.701 100.604,99.407 100.469,99.142 100.259,98.932 99.994,98.797 99.701,98.75 99.407,98.797 99.142,98.932 98.932,99.142 98.797,99.407 98.75,99.701 98.797,99.994 98.932,100.259 99.142,100.469 99.407,100.604 99.701,100.651 "
         style="fill:none;stroke:#000000;stroke-width:0.05mm"
         id="polygon973"
         transform="translate(-51.651146,-44.943205)" />
      <polygon
         points="15.099,53.199 15.099,91.3 91.3,91.3 91.3,34.15 91.301,34.15 91.301,15.099 34.149,15.099 34.149,53.199 "
         style="fill:none;stroke:#000000;stroke-width:0.05mm"
         id="polygon975"
         transform="translate(-51.651146,-44.943205)" />
      <polygon
         points="6.993,7.603 7.258,7.468 7.468,7.258 7.603,6.993 7.65,6.7 7.603,6.406 7.468,6.141 7.258,5.931 6.993,5.796 6.7,5.75 6.406,5.796 6.141,5.931 5.931,6.141 5.796,6.406 5.75,6.7 5.796,6.993 5.931,7.258 6.141,7.468 6.406,7.603 6.7,7.65 "
         style="fill:none;stroke:#000000;stroke-width:0.05mm"
         id="polygon977"
         transform="translate(-51.651146,-44.943205)" />
      <polygon
         points="99.994,7.603 100.259,7.468 100.469,7.258 100.604,6.993 100.651,6.699 100.604,6.406 100.469,6.141 100.259,5.931 99.994,5.796 99.701,5.749 99.407,5.796 99.142,5.931 98.932,6.141 98.797,6.406 98.75,6.699 98.797,6.993 98.932,7.258 99.142,7.468 99.407,7.603 99.701,7.649 "
         style="fill:none;stroke:#000000;stroke-width:0.05mm"
         id="polygon979"
         transform="translate(-51.651146,-44.943205)" />
    </g>
    <g
       id="g1016"
       transform="translate(233.22858,18.910366)">
      <polygon
         points="5,5 101.401,5 101.401,101.4 5,101.4 "
         style="fill:none;stroke:#000000;stroke-width:0.05mm"
         id="polygon995" />
      <polygon
         points="6.993,100.604 7.258,100.469 7.468,100.259 7.603,99.994 7.65,99.701 7.603,99.407 7.468,99.142 7.258,98.932 6.993,98.797 6.7,98.75 6.406,98.797 6.141,98.932 5.931,99.142 5.796,99.407 5.75,99.701 5.796,99.994 5.931,100.259 6.141,100.469 6.406,100.604 6.7,100.651 "
         style="fill:none;stroke:#000000;stroke-width:0.05mm"
         id="polygon997" />
      <polygon
         points="99.994,100.604 100.259,100.469 100.469,100.259 100.604,99.994 100.651,99.701 100.604,99.407 100.469,99.142 100.259,98.932 99.994,98.797 99.701,98.75 99.407,98.797 99.142,98.932 98.932,99.142 98.797,99.407 98.75,99.701 98.797,99.994 98.932,100.259 99.142,100.469 99.407,100.604 99.701,100.651 "
         style="fill:none;stroke:#000000;stroke-width:0.05mm"
         id="polygon999" />
      <polygon
         points="6.993,7.603 7.258,7.468 7.468,7.258 7.603,6.993 7.65,6.7 7.603,6.406 7.468,6.141 7.258,5.931 6.993,5.796 6.7,5.75 6.406,5.796 6.141,5.931 5.931,6.141 5.796,6.406 5.75,6.7 5.796,6.993 5.931,7.258 6.141,7.468 6.406,7.603 6.7,7.65 "
         style="fill:none;stroke:#000000;stroke-width:0.05mm"
         id="polygon1001" />
      <polygon
         points="99.994,7.603 100.259,7.468 100.469,7.258 100.604,6.993 100.651,6.699 100.604,6.406 100.469,6.141 100.259,5.931 99.994,5.796 99.701,5.749 99.407,5.796 99.142,5.931 98.932,6.141 98.797,6.406 98.75,6.699 98.797,6.993 98.932,7.258 99.142,7.468 99.407,7.603 99.701,7.649 "
         style="fill:none;stroke:#000000;stroke-width:0.05mm"
         id="polygon1003" />
    </g>
    <g
       id="g1042"
       transform="translate(7.5063664,129.59139)">
      <polygon
         points="5,101.4 5,5 101.401,5 101.401,101.4 "
         style="fill:none;stroke:#000000;stroke-width:0.05mm"
         id="polygon1018" />
      <polygon
         points="6.7,100.651 6.993,100.604 7.258,100.469 7.468,100.259 7.603,99.994 7.65,99.701 7.603,99.407 7.468,99.142 7.258,98.932 6.993,98.797 6.7,98.75 6.406,98.797 6.141,98.932 5.931,99.142 5.796,99.407 5.75,99.701 5.796,99.994 5.931,100.259 6.141,100.469 6.406,100.604 "
         style="fill:none;stroke:#000000;stroke-width:0.05mm"
         id="polygon1020" />
      <polygon
         points="99.701,100.651 99.994,100.604 100.259,100.469 100.469,100.259 100.604,99.994 100.651,99.701 100.604,99.407 100.469,99.142 100.259,98.932 99.994,98.797 99.701,98.75 99.407,98.797 99.142,98.932 98.932,99.142 98.797,99.407 98.75,99.701 98.797,99.994 98.932,100.259 99.142,100.469 99.407,100.604 "
         style="fill:none;stroke:#000000;stroke-width:0.05mm"
         id="polygon1022" />
      <polygon
         points="8.4,98 98,98 98,8.4 8.4,8.4 "
         style="fill:none;stroke:#000000;stroke-width:0.05mm"
         id="polygon1024" />
      <polygon
         points="6.7,7.65 6.993,7.603 7.258,7.468 7.468,7.258 7.603,6.993 7.65,6.7 7.603,6.406 7.468,6.141 7.258,5.931 6.993,5.796 6.7,5.75 6.406,5.796 6.141,5.931 5.931,6.141 5.796,6.406 5.75,6.7 5.796,6.993 5.931,7.258 6.141,7.468 6.406,7.603 "
         style="fill:none;stroke:#000000;stroke-width:0.05mm"
         id="polygon1026" />
      <polygon
         points="99.701,7.649 99.994,7.603 100.259,7.468 100.469,7.258 100.604,6.993 100.651,6.699 100.604,6.406 100.469,6.141 100.259,5.931 99.994,5.796 99.701,5.749 99.407,5.796 99.142,5.931 98.932,6.141 98.797,6.406 98.75,6.699 98.797,6.993 98.932,7.258 99.142,7.468 99.407,7.603 "
         style="fill:none;stroke:#000000;stroke-width:0.05mm"
         id="polygon1028" />
    </g>
    <g
       id="g1065"
       transform="translate(120.53518,130.26219)">
      <polygon
         points="5,5 18.3,5 18.3,8.4 8.4,8.4 8.4,98 98,98 98,8.4 28.1,8.4 28.1,5 101.401,5 101.401,101.4 5,101.4 "
         style="fill:none;stroke:#000000;stroke-width:0.05mm"
         id="polygon1044" />
      <polygon
         points="6.993,100.604 7.258,100.469 7.468,100.259 7.603,99.994 7.65,99.701 7.603,99.407 7.468,99.142 7.258,98.932 6.993,98.797 6.7,98.75 6.406,98.797 6.141,98.932 5.931,99.142 5.796,99.407 5.75,99.701 5.796,99.994 5.931,100.259 6.141,100.469 6.406,100.604 6.7,100.651 "
         style="fill:none;stroke:#000000;stroke-width:0.05mm"
         id="polygon1046" />
      <polygon
         points="99.994,100.604 100.259,100.469 100.469,100.259 100.604,99.994 100.651,99.701 100.604,99.407 100.469,99.142 100.259,98.932 99.994,98.797 99.701,98.75 99.407,98.797 99.142,98.932 98.932,99.142 98.797,99.407 98.75,99.701 98.797,99.994 98.932,100.259 99.142,100.469 99.407,100.604 99.701,100.651 "
         style="fill:none;stroke:#000000;stroke-width:0.05mm"
         id="polygon1048" />
      <polygon
         points="6.993,7.603 7.258,7.468 7.468,7.258 7.603,6.993 7.65,6.7 7.603,6.406 7.468,6.141 7.258,5.931 6.993,5.796 6.7,5.75 6.406,5.796 6.141,5.931 5.931,6.141 5.796,6.406 5.75,6.7 5.796,6.993 5.931,7.258 6.141,7.468 6.406,7.603 6.7,7.65 "
         style="fill:none;stroke:#000000;stroke-width:0.05mm"
         id="polygon1050" />
      <polygon
         points="99.994,7.603 100.259,7.468 100.469,7.258 100.604,6.993 100.651,6.699 100.604,6.406 100.469,6.141 100.259,5.931 99.994,5.796 99.701,5.749 99.407,5.796 99.142,5.931 98.932,6.141 98.797,6.406 98.75,6.699 98.797,6.993 98.932,7.258 99.142,7.468 99.407,7.603 99.701,7.649 "
         style="fill:none;stroke:#000000;stroke-width:0.05mm"
         id="polygon1052" />
    </g>
    <circle
       id="path1595"
       style="fill:#000000;stroke:#000000;stroke-width:0.264583"
       cx="340.7634"
       cy="151.59947"
       r="0.04467456" />
    <circle
       id="path1597"
       style="fill:#000000;stroke:#000000;stroke-width:0.264583"
       cx="340.7634"
       cy="151.59947"
       r="0.04467456" />
  </g>
  <g
     inkscape:groupmode="layer"
     id="layer4"
     inkscape:label="Layer 2" />
</svg>
